<?xml version="1.0" standalone="no"?>
<!DOCTYPE svg PUBLIC "-//W3C//DTD SVG 20010904//EN"
 "http://www.w3.org/TR/2001/REC-SVG-20010904/DTD/svg10.dtd">
<svg version="1.0" xmlns="http://www.w3.org/2000/svg"
 width="16.000000pt" height="16.000000pt" viewBox="0 0 16.000000 16.000000"
 preserveAspectRatio="xMidYMid meet">
<metadata>
Created by potrace 1.11, written by Peter Selinger 2001-2013
</metadata>
<g transform="translate(0.000000,16.000000) scale(0.007407,-0.007407)"
fill="#000000" stroke="none">
<path d="M270 2135 c-102 -29 -184 -99 -228 -193 l-27 -57 -2 -788 c-2 -434 1
-786 6 -783 4 3 6 -5 4 -19 -7 -33 42 -130 87 -174 48 -47 56 -52 115 -81 l50
-25 808 0 c527 0 810 3 815 10 4 6 14 11 22 13 60 12 154 91 189 160 39 77 41
118 41 889 0 793 -1 808 -48 886 -10 17 -25 31 -31 29 -7 -1 -9 2 -6 9 4 6
-10 26 -31 46 -41 37 -94 69 -94 56 0 -5 -4 -3 -8 3 -20 29 -105 33 -856 32
-594 0 -771 -3 -806 -13z m1297 -660 c0 -8 -4 -12 -9 -9 -5 3 -6 10 -3 15 9
13 12 11 12 -6z m78 -155 c3 -5 1 -10 -4 -10 -6 0 -11 5 -11 10 0 6 2 10 4 10
3 0 8 -4 11 -10z m-145 -194 c0 -2 -8 -10 -17 -17 -16 -13 -17 -12 -4 4 13 16
21 21 21 13z m-459 -219 c-10 -9 -11 -8 -5 6 3 10 9 15 12 12 3 -3 0 -11 -7
-18z m-236 -115 c-3 -3 -11 0 -18 7 -9 10 -8 11 6 5 10 -3 15 -9 12 -12z"/>
</g>
</svg>
